<mxfile host="Electron" agent="Mozilla/5.0 (Windows NT 10.0; Win64; x64) AppleWebKit/537.36 (KHTML, like Gecko) draw.io/28.1.2 Chrome/138.0.7204.243 Electron/37.4.0 Safari/537.36" version="28.1.2">
  <diagram name="Page-1" id="wK8RtzLL9SJ3R5ARjWUS">
    <mxGraphModel dx="2570" dy="1528" grid="0" gridSize="10" guides="1" tooltips="1" connect="1" arrows="1" fold="1" page="1" pageScale="1" pageWidth="850" pageHeight="1100" math="0" shadow="0">
      <root>
        <mxCell id="0" />
        <mxCell id="1" parent="0" />
        <mxCell id="VeMJpktW_zQZ9WVwpv5x-1" value="" style="rounded=0;whiteSpace=wrap;html=1;strokeWidth=3;fontSize=20;container=0;fontStyle=1" parent="1" vertex="1">
          <mxGeometry x="252" y="310" width="173" height="192" as="geometry" />
        </mxCell>
        <mxCell id="VeMJpktW_zQZ9WVwpv5x-2" value="D" style="text;html=1;align=center;verticalAlign=middle;resizable=0;points=[];autosize=1;strokeColor=none;fillColor=none;strokeWidth=3;fontSize=20;container=0;fontStyle=1" parent="1" vertex="1">
          <mxGeometry x="257" y="326" width="40" height="40" as="geometry" />
        </mxCell>
        <mxCell id="VeMJpktW_zQZ9WVwpv5x-3" value="CLK" style="text;html=1;align=center;verticalAlign=middle;resizable=0;points=[];autosize=1;strokeColor=none;fillColor=none;strokeWidth=3;fontSize=20;container=0;fontStyle=1" parent="1" vertex="1">
          <mxGeometry x="266" y="442" width="60" height="40" as="geometry" />
        </mxCell>
        <mxCell id="VeMJpktW_zQZ9WVwpv5x-4" value="Q" style="text;html=1;align=center;verticalAlign=middle;resizable=0;points=[];autosize=1;strokeColor=none;fillColor=none;strokeWidth=3;fontSize=20;container=0;fontStyle=1" parent="1" vertex="1">
          <mxGeometry x="380" y="326" width="40" height="40" as="geometry" />
        </mxCell>
        <mxCell id="VeMJpktW_zQZ9WVwpv5x-5" value="" style="triangle;whiteSpace=wrap;html=1;strokeWidth=3;fillColor=#33001A;strokeColor=#33001A;fontColor=#ffffff;" parent="1" vertex="1">
          <mxGeometry x="252" y="451" width="19" height="22" as="geometry" />
        </mxCell>
        <mxCell id="VeMJpktW_zQZ9WVwpv5x-6" value="" style="ellipse;whiteSpace=wrap;html=1;aspect=fixed;strokeWidth=3;" parent="1" vertex="1">
          <mxGeometry x="240" y="456.5" width="11" height="11" as="geometry" />
        </mxCell>
        <mxCell id="VeMJpktW_zQZ9WVwpv5x-7" value="" style="rounded=0;whiteSpace=wrap;html=1;strokeWidth=3;fontSize=20;container=0;fontStyle=1" parent="1" vertex="1">
          <mxGeometry x="652" y="310" width="173" height="192" as="geometry" />
        </mxCell>
        <mxCell id="VeMJpktW_zQZ9WVwpv5x-8" value="D" style="text;html=1;align=center;verticalAlign=middle;resizable=0;points=[];autosize=1;strokeColor=none;fillColor=none;strokeWidth=3;fontSize=20;container=0;fontStyle=1" parent="1" vertex="1">
          <mxGeometry x="657" y="326" width="40" height="40" as="geometry" />
        </mxCell>
        <mxCell id="VeMJpktW_zQZ9WVwpv5x-9" value="CLK" style="text;html=1;align=center;verticalAlign=middle;resizable=0;points=[];autosize=1;strokeColor=none;fillColor=none;strokeWidth=3;fontSize=20;container=0;fontStyle=1" parent="1" vertex="1">
          <mxGeometry x="654" y="442" width="60" height="40" as="geometry" />
        </mxCell>
        <mxCell id="VeMJpktW_zQZ9WVwpv5x-10" value="Q" style="text;html=1;align=center;verticalAlign=middle;resizable=0;points=[];autosize=1;strokeColor=none;fillColor=none;strokeWidth=3;fontSize=20;container=0;fontStyle=1" parent="1" vertex="1">
          <mxGeometry x="780" y="326" width="40" height="40" as="geometry" />
        </mxCell>
        <mxCell id="VeMJpktW_zQZ9WVwpv5x-12" style="edgeStyle=orthogonalEdgeStyle;rounded=0;orthogonalLoop=1;jettySize=auto;html=1;exitX=0;exitY=0.5;exitDx=0;exitDy=0;endArrow=none;endFill=0;strokeWidth=3;" parent="1" source="VeMJpktW_zQZ9WVwpv5x-13" edge="1">
          <mxGeometry relative="1" as="geometry">
            <mxPoint x="171" y="462" as="targetPoint" />
            <Array as="points">
              <mxPoint x="581" y="462" />
              <mxPoint x="581" y="613" />
              <mxPoint x="173" y="613" />
              <mxPoint x="173" y="463" />
              <mxPoint x="171" y="463" />
            </Array>
          </mxGeometry>
        </mxCell>
        <mxCell id="VeMJpktW_zQZ9WVwpv5x-13" value="" style="ellipse;whiteSpace=wrap;html=1;aspect=fixed;strokeWidth=3;" parent="1" vertex="1">
          <mxGeometry x="640" y="456.5" width="11" height="11" as="geometry" />
        </mxCell>
        <mxCell id="VeMJpktW_zQZ9WVwpv5x-14" style="rounded=0;orthogonalLoop=1;jettySize=auto;html=1;exitX=1;exitY=0.5;exitDx=0;exitDy=0;endArrow=none;endFill=0;strokeWidth=3;entryX=0;entryY=0.5;entryDx=0;entryDy=0;" parent="1" source="VeMJpktW_zQZ9WVwpv5x-15" target="VeMJpktW_zQZ9WVwpv5x-6" edge="1">
          <mxGeometry relative="1" as="geometry">
            <mxPoint x="238" y="462" as="targetPoint" />
          </mxGeometry>
        </mxCell>
        <mxCell id="VeMJpktW_zQZ9WVwpv5x-15" value="clk" style="rounded=0;whiteSpace=wrap;html=1;strokeColor=none;fontSize=20;" parent="1" vertex="1">
          <mxGeometry x="22" y="445" width="67" height="35" as="geometry" />
        </mxCell>
        <mxCell id="VeMJpktW_zQZ9WVwpv5x-16" style="rounded=0;orthogonalLoop=1;jettySize=auto;html=1;exitX=1;exitY=0.5;exitDx=0;exitDy=0;endArrow=none;endFill=0;strokeWidth=3;entryX=0.005;entryY=0.17;entryDx=0;entryDy=0;entryPerimeter=0;" parent="1" source="VeMJpktW_zQZ9WVwpv5x-17" target="VeMJpktW_zQZ9WVwpv5x-1" edge="1">
          <mxGeometry relative="1" as="geometry">
            <mxPoint x="250" y="342.6896551724138" as="targetPoint" />
          </mxGeometry>
        </mxCell>
        <mxCell id="VeMJpktW_zQZ9WVwpv5x-17" value="d" style="rounded=0;whiteSpace=wrap;html=1;strokeColor=none;fontSize=20;" parent="1" vertex="1">
          <mxGeometry x="20" y="325" width="67" height="35" as="geometry" />
        </mxCell>
        <mxCell id="VeMJpktW_zQZ9WVwpv5x-18" style="rounded=0;orthogonalLoop=1;jettySize=auto;html=1;endArrow=none;endFill=0;strokeWidth=3;" parent="1" edge="1">
          <mxGeometry relative="1" as="geometry">
            <mxPoint x="425" y="346" as="sourcePoint" />
            <mxPoint x="652" y="346" as="targetPoint" />
          </mxGeometry>
        </mxCell>
        <mxCell id="VeMJpktW_zQZ9WVwpv5x-19" value="" style="edgeStyle=orthogonalEdgeStyle;rounded=0;orthogonalLoop=1;jettySize=auto;html=1;strokeWidth=3;endArrow=none;endFill=0;" parent="1" source="VeMJpktW_zQZ9WVwpv5x-20" edge="1">
          <mxGeometry relative="1" as="geometry">
            <mxPoint x="826" y="346" as="targetPoint" />
          </mxGeometry>
        </mxCell>
        <mxCell id="VeMJpktW_zQZ9WVwpv5x-20" value="q" style="rounded=0;whiteSpace=wrap;html=1;strokeColor=none;fontSize=20;" parent="1" vertex="1">
          <mxGeometry x="965" y="328.5" width="67" height="35" as="geometry" />
        </mxCell>
        <mxCell id="VeMJpktW_zQZ9WVwpv5x-21" value="" style="rounded=0;whiteSpace=wrap;html=1;strokeWidth=3;fontSize=20;container=0;fontStyle=1" parent="1" vertex="1">
          <mxGeometry x="252" y="701" width="173" height="192" as="geometry" />
        </mxCell>
        <mxCell id="VeMJpktW_zQZ9WVwpv5x-22" value="D" style="text;html=1;align=center;verticalAlign=middle;resizable=0;points=[];autosize=1;strokeColor=none;fillColor=none;strokeWidth=3;fontSize=20;container=0;fontStyle=1" parent="1" vertex="1">
          <mxGeometry x="257" y="717" width="40" height="40" as="geometry" />
        </mxCell>
        <mxCell id="VeMJpktW_zQZ9WVwpv5x-23" value="CLK" style="text;html=1;align=center;verticalAlign=middle;resizable=0;points=[];autosize=1;strokeColor=none;fillColor=none;strokeWidth=3;fontSize=20;container=0;fontStyle=1" parent="1" vertex="1">
          <mxGeometry x="266" y="833" width="60" height="40" as="geometry" />
        </mxCell>
        <mxCell id="VeMJpktW_zQZ9WVwpv5x-24" value="Q" style="text;html=1;align=center;verticalAlign=middle;resizable=0;points=[];autosize=1;strokeColor=none;fillColor=none;strokeWidth=3;fontSize=20;container=0;fontStyle=1" parent="1" vertex="1">
          <mxGeometry x="380" y="717" width="40" height="40" as="geometry" />
        </mxCell>
        <mxCell id="VeMJpktW_zQZ9WVwpv5x-25" value="" style="triangle;whiteSpace=wrap;html=1;strokeWidth=3;fillColor=#33001A;strokeColor=#33001A;fontColor=#ffffff;" parent="1" vertex="1">
          <mxGeometry x="252" y="842" width="19" height="22" as="geometry" />
        </mxCell>
        <mxCell id="VeMJpktW_zQZ9WVwpv5x-26" value="" style="ellipse;whiteSpace=wrap;html=1;aspect=fixed;strokeWidth=3;" parent="1" vertex="1">
          <mxGeometry x="240" y="847.5" width="11" height="11" as="geometry" />
        </mxCell>
        <mxCell id="VeMJpktW_zQZ9WVwpv5x-27" style="edgeStyle=orthogonalEdgeStyle;rounded=0;orthogonalLoop=1;jettySize=auto;html=1;exitX=0;exitY=0.5;exitDx=0;exitDy=0;endArrow=none;endFill=0;strokeWidth=3;" parent="1" edge="1">
          <mxGeometry relative="1" as="geometry">
            <mxPoint x="171" y="853" as="targetPoint" />
            <Array as="points">
              <mxPoint x="654" y="853" />
              <mxPoint x="581" y="853" />
              <mxPoint x="581" y="1004" />
              <mxPoint x="173" y="1004" />
              <mxPoint x="173" y="854" />
              <mxPoint x="171" y="854" />
            </Array>
            <mxPoint x="654.0000000000001" y="852" as="sourcePoint" />
          </mxGeometry>
        </mxCell>
        <mxCell id="VeMJpktW_zQZ9WVwpv5x-28" style="rounded=0;orthogonalLoop=1;jettySize=auto;html=1;exitX=1;exitY=0.5;exitDx=0;exitDy=0;endArrow=none;endFill=0;strokeWidth=3;entryX=0;entryY=0.5;entryDx=0;entryDy=0;" parent="1" source="VeMJpktW_zQZ9WVwpv5x-29" target="VeMJpktW_zQZ9WVwpv5x-26" edge="1">
          <mxGeometry relative="1" as="geometry">
            <mxPoint x="238" y="853" as="targetPoint" />
          </mxGeometry>
        </mxCell>
        <mxCell id="VeMJpktW_zQZ9WVwpv5x-29" value="clk" style="rounded=0;whiteSpace=wrap;html=1;strokeColor=none;fontSize=20;" parent="1" vertex="1">
          <mxGeometry x="22" y="836" width="67" height="35" as="geometry" />
        </mxCell>
        <mxCell id="VeMJpktW_zQZ9WVwpv5x-30" style="rounded=0;orthogonalLoop=1;jettySize=auto;html=1;exitX=1;exitY=0.5;exitDx=0;exitDy=0;endArrow=none;endFill=0;strokeWidth=3;entryX=0.005;entryY=0.17;entryDx=0;entryDy=0;entryPerimeter=0;" parent="1" source="VeMJpktW_zQZ9WVwpv5x-31" target="VeMJpktW_zQZ9WVwpv5x-21" edge="1">
          <mxGeometry relative="1" as="geometry">
            <mxPoint x="250" y="733.6896551724137" as="targetPoint" />
          </mxGeometry>
        </mxCell>
        <mxCell id="VeMJpktW_zQZ9WVwpv5x-31" value="d" style="rounded=0;whiteSpace=wrap;html=1;strokeColor=none;fontSize=20;" parent="1" vertex="1">
          <mxGeometry x="20" y="716" width="67" height="35" as="geometry" />
        </mxCell>
        <mxCell id="VeMJpktW_zQZ9WVwpv5x-32" style="rounded=0;orthogonalLoop=1;jettySize=auto;html=1;endArrow=none;endFill=0;strokeWidth=3;" parent="1" edge="1">
          <mxGeometry relative="1" as="geometry">
            <mxPoint x="425" y="737" as="sourcePoint" />
            <mxPoint x="652" y="737" as="targetPoint" />
          </mxGeometry>
        </mxCell>
        <mxCell id="VeMJpktW_zQZ9WVwpv5x-33" value="" style="edgeStyle=orthogonalEdgeStyle;rounded=0;orthogonalLoop=1;jettySize=auto;html=1;strokeWidth=3;endArrow=none;endFill=0;" parent="1" source="VeMJpktW_zQZ9WVwpv5x-34" edge="1">
          <mxGeometry relative="1" as="geometry">
            <mxPoint x="826" y="737" as="targetPoint" />
          </mxGeometry>
        </mxCell>
        <mxCell id="VeMJpktW_zQZ9WVwpv5x-34" value="q" style="rounded=0;whiteSpace=wrap;html=1;strokeColor=none;fontSize=20;" parent="1" vertex="1">
          <mxGeometry x="965" y="719.5" width="67" height="35" as="geometry" />
        </mxCell>
        <mxCell id="VeMJpktW_zQZ9WVwpv5x-35" value="" style="rounded=0;whiteSpace=wrap;html=1;strokeWidth=3;fontSize=20;container=0;fontStyle=1" parent="1" vertex="1">
          <mxGeometry x="654" y="700" width="173" height="192" as="geometry" />
        </mxCell>
        <mxCell id="VeMJpktW_zQZ9WVwpv5x-36" value="D" style="text;html=1;align=center;verticalAlign=middle;resizable=0;points=[];autosize=1;strokeColor=none;fillColor=none;strokeWidth=3;fontSize=20;container=0;fontStyle=1" parent="1" vertex="1">
          <mxGeometry x="663" y="718" width="33" height="37" as="geometry" />
        </mxCell>
        <mxCell id="VeMJpktW_zQZ9WVwpv5x-37" value="CLK" style="text;html=1;align=center;verticalAlign=middle;resizable=0;points=[];autosize=1;strokeColor=none;fillColor=none;strokeWidth=3;fontSize=20;container=0;fontStyle=1" parent="1" vertex="1">
          <mxGeometry x="655" y="834" width="58" height="37" as="geometry" />
        </mxCell>
        <mxCell id="VeMJpktW_zQZ9WVwpv5x-38" value="Q" style="text;html=1;align=center;verticalAlign=middle;resizable=0;points=[];autosize=1;strokeColor=none;fillColor=none;strokeWidth=3;fontSize=20;container=0;fontStyle=1" parent="1" vertex="1">
          <mxGeometry x="785" y="718" width="35" height="37" as="geometry" />
        </mxCell>
        <mxCell id="VeMJpktW_zQZ9WVwpv5x-40" value="" style="rounded=0;whiteSpace=wrap;html=1;strokeWidth=3;fontSize=20;container=0;fontStyle=1" parent="1" vertex="1">
          <mxGeometry x="652" y="1101" width="173" height="192" as="geometry" />
        </mxCell>
        <mxCell id="VeMJpktW_zQZ9WVwpv5x-41" value="D" style="text;html=1;align=center;verticalAlign=middle;resizable=0;points=[];autosize=1;strokeColor=none;fillColor=none;strokeWidth=3;fontSize=20;container=0;fontStyle=1" parent="1" vertex="1">
          <mxGeometry x="657" y="1117" width="40" height="40" as="geometry" />
        </mxCell>
        <mxCell id="VeMJpktW_zQZ9WVwpv5x-42" value="CLK" style="text;html=1;align=center;verticalAlign=middle;resizable=0;points=[];autosize=1;strokeColor=none;fillColor=none;strokeWidth=3;fontSize=20;container=0;fontStyle=1" parent="1" vertex="1">
          <mxGeometry x="650" y="1233" width="60" height="40" as="geometry" />
        </mxCell>
        <mxCell id="VeMJpktW_zQZ9WVwpv5x-43" value="Q" style="text;html=1;align=center;verticalAlign=middle;resizable=0;points=[];autosize=1;strokeColor=none;fillColor=none;strokeWidth=3;fontSize=20;container=0;fontStyle=1" parent="1" vertex="1">
          <mxGeometry x="780" y="1117" width="40" height="40" as="geometry" />
        </mxCell>
        <mxCell id="VeMJpktW_zQZ9WVwpv5x-45" style="edgeStyle=orthogonalEdgeStyle;rounded=0;orthogonalLoop=1;jettySize=auto;html=1;exitX=0;exitY=0.5;exitDx=0;exitDy=0;endArrow=none;endFill=0;strokeWidth=3;" parent="1" source="VeMJpktW_zQZ9WVwpv5x-46" edge="1">
          <mxGeometry relative="1" as="geometry">
            <mxPoint x="171" y="1253" as="targetPoint" />
            <Array as="points">
              <mxPoint x="581" y="1253" />
              <mxPoint x="581" y="1404" />
              <mxPoint x="173" y="1404" />
              <mxPoint x="173" y="1254" />
              <mxPoint x="171" y="1254" />
            </Array>
          </mxGeometry>
        </mxCell>
        <mxCell id="VeMJpktW_zQZ9WVwpv5x-46" value="" style="ellipse;whiteSpace=wrap;html=1;aspect=fixed;strokeWidth=3;" parent="1" vertex="1">
          <mxGeometry x="640" y="1247.5" width="11" height="11" as="geometry" />
        </mxCell>
        <mxCell id="VeMJpktW_zQZ9WVwpv5x-47" style="rounded=0;orthogonalLoop=1;jettySize=auto;html=1;exitX=1;exitY=0.5;exitDx=0;exitDy=0;endArrow=none;endFill=0;strokeWidth=3;entryX=0;entryY=0.5;entryDx=0;entryDy=0;" parent="1" source="VeMJpktW_zQZ9WVwpv5x-48" edge="1">
          <mxGeometry relative="1" as="geometry">
            <mxPoint x="240" y="1253" as="targetPoint" />
          </mxGeometry>
        </mxCell>
        <mxCell id="VeMJpktW_zQZ9WVwpv5x-48" value="clk" style="rounded=0;whiteSpace=wrap;html=1;strokeColor=none;fontSize=20;" parent="1" vertex="1">
          <mxGeometry x="22" y="1236" width="67" height="35" as="geometry" />
        </mxCell>
        <mxCell id="VeMJpktW_zQZ9WVwpv5x-49" style="rounded=0;orthogonalLoop=1;jettySize=auto;html=1;exitX=1;exitY=0.5;exitDx=0;exitDy=0;endArrow=none;endFill=0;strokeWidth=3;entryX=0.005;entryY=0.17;entryDx=0;entryDy=0;entryPerimeter=0;" parent="1" source="VeMJpktW_zQZ9WVwpv5x-50" edge="1">
          <mxGeometry relative="1" as="geometry">
            <mxPoint x="252.86499999999978" y="1133.64" as="targetPoint" />
          </mxGeometry>
        </mxCell>
        <mxCell id="VeMJpktW_zQZ9WVwpv5x-50" value="d" style="rounded=0;whiteSpace=wrap;html=1;strokeColor=none;fontSize=20;" parent="1" vertex="1">
          <mxGeometry x="20" y="1116" width="67" height="35" as="geometry" />
        </mxCell>
        <mxCell id="VeMJpktW_zQZ9WVwpv5x-51" style="rounded=0;orthogonalLoop=1;jettySize=auto;html=1;endArrow=none;endFill=0;strokeWidth=3;" parent="1" edge="1">
          <mxGeometry relative="1" as="geometry">
            <mxPoint x="415" y="1137" as="sourcePoint" />
            <mxPoint x="652" y="1137" as="targetPoint" />
          </mxGeometry>
        </mxCell>
        <mxCell id="VeMJpktW_zQZ9WVwpv5x-52" value="" style="edgeStyle=orthogonalEdgeStyle;rounded=0;orthogonalLoop=1;jettySize=auto;html=1;strokeWidth=3;endArrow=none;endFill=0;" parent="1" source="VeMJpktW_zQZ9WVwpv5x-53" edge="1">
          <mxGeometry relative="1" as="geometry">
            <mxPoint x="826" y="1137" as="targetPoint" />
          </mxGeometry>
        </mxCell>
        <mxCell id="VeMJpktW_zQZ9WVwpv5x-53" value="q" style="rounded=0;whiteSpace=wrap;html=1;strokeColor=none;fontSize=20;" parent="1" vertex="1">
          <mxGeometry x="965" y="1119.5" width="67" height="35" as="geometry" />
        </mxCell>
        <mxCell id="VeMJpktW_zQZ9WVwpv5x-54" value="" style="rounded=0;whiteSpace=wrap;html=1;strokeWidth=3;fontSize=20;container=0;fontStyle=1" parent="1" vertex="1">
          <mxGeometry x="241" y="1100" width="173" height="192" as="geometry" />
        </mxCell>
        <mxCell id="VeMJpktW_zQZ9WVwpv5x-55" value="D" style="text;html=1;align=center;verticalAlign=middle;resizable=0;points=[];autosize=1;strokeColor=none;fillColor=none;strokeWidth=3;fontSize=20;container=0;fontStyle=1" parent="1" vertex="1">
          <mxGeometry x="250" y="1118" width="33" height="37" as="geometry" />
        </mxCell>
        <mxCell id="VeMJpktW_zQZ9WVwpv5x-56" value="CLK" style="text;html=1;align=center;verticalAlign=middle;resizable=0;points=[];autosize=1;strokeColor=none;fillColor=none;strokeWidth=3;fontSize=20;container=0;fontStyle=1" parent="1" vertex="1">
          <mxGeometry x="256" y="1234" width="58" height="37" as="geometry" />
        </mxCell>
        <mxCell id="VeMJpktW_zQZ9WVwpv5x-57" value="Q" style="text;html=1;align=center;verticalAlign=middle;resizable=0;points=[];autosize=1;strokeColor=none;fillColor=none;strokeWidth=3;fontSize=20;container=0;fontStyle=1" parent="1" vertex="1">
          <mxGeometry x="372" y="1118" width="35" height="37" as="geometry" />
        </mxCell>
        <mxCell id="VeMJpktW_zQZ9WVwpv5x-58" value="" style="triangle;whiteSpace=wrap;html=1;strokeWidth=3;fillColor=#33001A;strokeColor=#33001A;fontColor=#ffffff;" parent="1" vertex="1">
          <mxGeometry x="241" y="1241" width="19" height="22" as="geometry" />
        </mxCell>
        <mxCell id="VeMJpktW_zQZ9WVwpv5x-59" style="edgeStyle=orthogonalEdgeStyle;rounded=0;orthogonalLoop=1;jettySize=auto;html=1;endArrow=none;endFill=0;strokeWidth=3;" parent="1" edge="1">
          <mxGeometry relative="1" as="geometry">
            <mxPoint x="171" y="1693" as="targetPoint" />
            <Array as="points">
              <mxPoint x="581" y="1693" />
              <mxPoint x="581" y="1844" />
              <mxPoint x="173" y="1844" />
              <mxPoint x="173" y="1694" />
              <mxPoint x="171" y="1694" />
            </Array>
            <mxPoint x="650" y="1693" as="sourcePoint" />
          </mxGeometry>
        </mxCell>
        <mxCell id="VeMJpktW_zQZ9WVwpv5x-60" style="rounded=0;orthogonalLoop=1;jettySize=auto;html=1;exitX=1;exitY=0.5;exitDx=0;exitDy=0;endArrow=none;endFill=0;strokeWidth=3;entryX=0;entryY=0.5;entryDx=0;entryDy=0;" parent="1" source="VeMJpktW_zQZ9WVwpv5x-61" edge="1">
          <mxGeometry relative="1" as="geometry">
            <mxPoint x="240" y="1693" as="targetPoint" />
          </mxGeometry>
        </mxCell>
        <mxCell id="VeMJpktW_zQZ9WVwpv5x-61" value="clk" style="rounded=0;whiteSpace=wrap;html=1;strokeColor=none;fontSize=20;" parent="1" vertex="1">
          <mxGeometry x="22" y="1676" width="67" height="35" as="geometry" />
        </mxCell>
        <mxCell id="VeMJpktW_zQZ9WVwpv5x-62" style="rounded=0;orthogonalLoop=1;jettySize=auto;html=1;exitX=1;exitY=0.5;exitDx=0;exitDy=0;endArrow=none;endFill=0;strokeWidth=3;entryX=0.005;entryY=0.17;entryDx=0;entryDy=0;entryPerimeter=0;" parent="1" source="VeMJpktW_zQZ9WVwpv5x-63" edge="1">
          <mxGeometry relative="1" as="geometry">
            <mxPoint x="252.86499999999978" y="1573.64" as="targetPoint" />
          </mxGeometry>
        </mxCell>
        <mxCell id="VeMJpktW_zQZ9WVwpv5x-63" value="d" style="rounded=0;whiteSpace=wrap;html=1;strokeColor=none;fontSize=20;" parent="1" vertex="1">
          <mxGeometry x="20" y="1556" width="67" height="35" as="geometry" />
        </mxCell>
        <mxCell id="VeMJpktW_zQZ9WVwpv5x-64" style="rounded=0;orthogonalLoop=1;jettySize=auto;html=1;endArrow=none;endFill=0;strokeWidth=3;" parent="1" edge="1">
          <mxGeometry relative="1" as="geometry">
            <mxPoint x="415" y="1577" as="sourcePoint" />
            <mxPoint x="652" y="1577" as="targetPoint" />
          </mxGeometry>
        </mxCell>
        <mxCell id="VeMJpktW_zQZ9WVwpv5x-65" value="" style="rounded=0;orthogonalLoop=1;jettySize=auto;html=1;strokeWidth=3;endArrow=none;endFill=0;" parent="1" source="VeMJpktW_zQZ9WVwpv5x-66" edge="1">
          <mxGeometry relative="1" as="geometry">
            <mxPoint x="824" y="1576" as="targetPoint" />
          </mxGeometry>
        </mxCell>
        <mxCell id="VeMJpktW_zQZ9WVwpv5x-66" value="q" style="rounded=0;whiteSpace=wrap;html=1;strokeColor=none;fontSize=20;" parent="1" vertex="1">
          <mxGeometry x="965" y="1559.5" width="67" height="35" as="geometry" />
        </mxCell>
        <mxCell id="VeMJpktW_zQZ9WVwpv5x-67" value="" style="rounded=0;whiteSpace=wrap;html=1;strokeWidth=3;fontSize=20;container=0;fontStyle=1" parent="1" vertex="1">
          <mxGeometry x="241" y="1540" width="173" height="192" as="geometry" />
        </mxCell>
        <mxCell id="VeMJpktW_zQZ9WVwpv5x-68" value="D" style="text;html=1;align=center;verticalAlign=middle;resizable=0;points=[];autosize=1;strokeColor=none;fillColor=none;strokeWidth=3;fontSize=20;container=0;fontStyle=1" parent="1" vertex="1">
          <mxGeometry x="250" y="1558" width="33" height="37" as="geometry" />
        </mxCell>
        <mxCell id="VeMJpktW_zQZ9WVwpv5x-69" value="CLK" style="text;html=1;align=center;verticalAlign=middle;resizable=0;points=[];autosize=1;strokeColor=none;fillColor=none;strokeWidth=3;fontSize=20;container=0;fontStyle=1" parent="1" vertex="1">
          <mxGeometry x="256" y="1674" width="58" height="37" as="geometry" />
        </mxCell>
        <mxCell id="VeMJpktW_zQZ9WVwpv5x-70" value="Q" style="text;html=1;align=center;verticalAlign=middle;resizable=0;points=[];autosize=1;strokeColor=none;fillColor=none;strokeWidth=3;fontSize=20;container=0;fontStyle=1" parent="1" vertex="1">
          <mxGeometry x="372" y="1558" width="35" height="37" as="geometry" />
        </mxCell>
        <mxCell id="VeMJpktW_zQZ9WVwpv5x-71" value="" style="triangle;whiteSpace=wrap;html=1;strokeWidth=3;fillColor=#33001A;strokeColor=#33001A;fontColor=#ffffff;" parent="1" vertex="1">
          <mxGeometry x="241" y="1681" width="19" height="22" as="geometry" />
        </mxCell>
        <mxCell id="VeMJpktW_zQZ9WVwpv5x-72" value="" style="rounded=0;whiteSpace=wrap;html=1;strokeWidth=3;fontSize=20;container=0;fontStyle=1" parent="1" vertex="1">
          <mxGeometry x="651" y="1543" width="173" height="192" as="geometry" />
        </mxCell>
        <mxCell id="VeMJpktW_zQZ9WVwpv5x-73" value="D" style="text;html=1;align=center;verticalAlign=middle;resizable=0;points=[];autosize=1;strokeColor=none;fillColor=none;strokeWidth=3;fontSize=20;container=0;fontStyle=1" parent="1" vertex="1">
          <mxGeometry x="660" y="1561" width="33" height="37" as="geometry" />
        </mxCell>
        <mxCell id="VeMJpktW_zQZ9WVwpv5x-74" value="CLK" style="text;html=1;align=center;verticalAlign=middle;resizable=0;points=[];autosize=1;strokeColor=none;fillColor=none;strokeWidth=3;fontSize=20;container=0;fontStyle=1" parent="1" vertex="1">
          <mxGeometry x="652" y="1675" width="58" height="37" as="geometry" />
        </mxCell>
        <mxCell id="VeMJpktW_zQZ9WVwpv5x-75" value="Q" style="text;html=1;align=center;verticalAlign=middle;resizable=0;points=[];autosize=1;strokeColor=none;fillColor=none;strokeWidth=3;fontSize=20;container=0;fontStyle=1" parent="1" vertex="1">
          <mxGeometry x="782" y="1561" width="35" height="37" as="geometry" />
        </mxCell>
        <mxCell id="VeMJpktW_zQZ9WVwpv5x-161" value="&lt;font style=&quot;font-size: 40px;&quot;&gt;Same Clock&lt;/font&gt;" style="text;html=1;align=center;verticalAlign=middle;resizable=0;points=[];autosize=1;strokeColor=#b85450;fillColor=#f8cecc;" parent="1" vertex="1">
          <mxGeometry x="326" y="70" width="240" height="60" as="geometry" />
        </mxCell>
      </root>
    </mxGraphModel>
  </diagram>
</mxfile>
